<?xml version="1.0" standalone="no"?>
<!DOCTYPE svg PUBLIC "-//W3C//DTD SVG 20010904//EN"
 "http://www.w3.org/TR/2001/REC-SVG-20010904/DTD/svg10.dtd">
<svg version="1.0" xmlns="http://www.w3.org/2000/svg"
 width="350.000000pt" height="55.000000pt" viewBox="0 0 350.000000 55.000000"
 preserveAspectRatio="xMidYMid meet">

<g transform="translate(0.000000,55.000000) scale(0.100000,-0.100000)"
fill="#000000" stroke="none">
<path d="M168 503 c-43 -49 -57 -107 -37 -146 9 -16 9 -22 -1 -25 -43 -15 -64
-79 -39 -121 10 -15 8 -22 -10 -40 -33 -33 -25 -41 19 -18 33 18 43 20 57 10
10 -7 38 -25 62 -40 41 -25 45 -25 56 -9 14 18 9 59 -6 51 -4 -3 -6 -12 -2
-20 8 -22 -4 -18 -42 12 l-33 26 20 28 c14 18 19 37 16 58 -4 25 -1 31 13 31
10 0 30 5 44 12 22 10 29 8 55 -17 16 -16 37 -48 46 -71 15 -40 15 -45 -2 -81
-38 -78 -148 -95 -254 -40 -52 27 -52 27 -38 5 24 -37 99 -78 155 -84 92 -11
168 31 199 112 22 58 8 109 -47 169 -37 40 -39 44 -20 50 31 10 25 40 -16 86
-65 72 -160 102 -195 62z m102 -61 c27 -33 25 -68 -5 -97 -30 -31 -57 -32 -89
-2 -43 38 -36 109 11 125 37 12 59 5 83 -26z m-90 -142 c34 -18 44 -48 25 -76
-36 -55 -121 -10 -94 49 7 14 19 28 28 30 9 3 17 5 19 6 2 0 12 -4 22 -9z"/>
<path d="M1616 489 c-25 -20 -33 -50 -20 -83 3 -9 28 -31 55 -51 35 -25 49
-42 49 -59 0 -38 -25 -52 -71 -39 -34 9 -39 8 -39 -7 0 -38 95 -43 128 -7 40
43 25 94 -44 145 -64 47 -55 100 15 86 24 -5 31 -3 31 9 0 32 -65 36 -104 6z"/>
<path d="M1792 498 c-25 -13 -37 -46 -28 -82 3 -13 28 -40 56 -60 36 -26 50
-43 50 -60 0 -38 -25 -52 -70 -39 -31 8 -40 7 -44 -3 -7 -18 25 -34 69 -34 44
0 85 36 85 76 0 21 -14 41 -55 79 -30 28 -55 58 -55 66 0 26 24 40 59 33 24
-5 31 -3 31 9 0 27 -55 35 -98 15z"/>
<path d="M2869 495 c-69 -38 -77 -203 -12 -255 21 -17 38 -20 86 -18 l60 3 15
43 c13 39 16 42 51 42 34 0 38 -3 51 -42 9 -25 22 -44 33 -46 24 -5 22 3 -24
150 -37 116 -43 129 -62 126 -18 -3 -27 -21 -55 -123 l-34 -120 -38 -3 c-25
-1 -45 4 -60 16 -44 35 -36 177 11 203 11 6 33 7 50 4 22 -5 29 -3 29 8 0 29
-58 36 -101 12z m216 -104 l13 -51 -30 0 c-28 0 -30 2 -24 26 4 15 10 39 13
56 7 36 11 32 28 -31z"/>
<path d="M467 494 c-13 -13 5 -24 39 -24 l34 0 0 -126 c0 -114 2 -125 18 -122
15 3 17 18 20 126 l3 122 34 0 c24 0 35 5 35 15 0 12 -16 15 -88 15 -49 0 -92
-3 -95 -6z"/>
<path d="M680 360 c0 -118 2 -140 15 -140 13 0 15 22 15 140 0 118 -2 140 -15
140 -13 0 -15 -22 -15 -140z"/>
<path d="M777 403 c-10 -150 -9 -183 7 -183 10 0 15 24 21 96 l7 96 32 -93
c17 -51 36 -94 42 -96 5 -2 23 38 40 89 l29 92 7 -40 c4 -21 7 -63 7 -91 1
-46 4 -53 21 -53 19 0 20 4 15 98 -9 157 -14 182 -33 182 -13 0 -25 -24 -46
-92 -17 -51 -32 -96 -36 -100 -3 -4 -21 37 -39 92 -25 77 -36 100 -50 100 -16
0 -19 -13 -24 -97z"/>
<path d="M1060 360 l0 -140 75 0 c60 0 75 3 75 15 0 12 -13 15 -55 15 l-55 0
0 50 0 50 46 0 c38 0 45 3 42 17 -3 14 -12 17 -46 15 l-42 -4 0 46 0 46 50 0
c38 0 50 4 50 15 0 12 -14 15 -70 15 l-70 0 0 -140z"/>
<path d="M1250 360 l0 -140 71 0 c62 0 70 2 67 17 -2 14 -15 19 -51 21 l-47 3
0 120 c0 112 -1 119 -20 119 -19 0 -20 -7 -20 -140z"/>
<path d="M1420 360 l0 -140 70 0 c60 0 70 3 70 18 0 14 -8 17 -50 15 l-50 -2
0 49 0 49 43 3 c29 2 42 8 42 18 0 11 -10 14 -42 12 l-43 -4 0 46 0 45 47 3
c26 2 48 9 51 16 3 9 -15 12 -67 12 l-71 0 0 -140z"/>
<path d="M2030 437 c0 -35 -3 -98 -6 -140 -6 -66 -5 -77 9 -77 17 0 25 38 30
140 l2 55 30 -94 c17 -52 35 -96 42 -98 6 -2 25 36 45 94 l33 98 5 -95 c4 -83
7 -95 24 -98 18 -4 19 1 13 94 -4 55 -7 118 -7 142 0 39 -2 43 -22 40 -18 -2
-27 -20 -54 -103 -18 -56 -35 -93 -38 -85 -3 8 -19 53 -34 100 -23 69 -33 86
-50 88 -21 3 -22 -1 -22 -61z"/>
<path d="M2317 493 c-2 -5 -3 -66 -3 -138 l1 -130 73 -3 c64 -3 72 -1 72 15 0
16 -8 19 -52 18 l-53 0 -3 47 -3 47 48 3 c33 2 48 7 48 17 0 10 -13 15 -45 15
l-45 1 -3 42 -3 42 52 3 c31 2 54 8 57 16 3 9 -15 12 -67 12 -38 0 -72 -3 -74
-7z"/>
<path d="M2502 363 l3 -138 58 0 c48 0 61 5 83 27 33 32 46 97 32 160 -14 66
-43 88 -120 88 l-59 0 3 -137z m108 97 c42 -23 51 -148 12 -183 -9 -9 -30 -17
-47 -19 l-30 -3 -3 108 -3 107 26 0 c15 0 35 -4 45 -10z"/>
<path d="M2732 363 c3 -122 5 -138 21 -141 15 -3 17 9 17 137 0 135 -1 141
-20 141 -20 0 -20 -5 -18 -137z"/>
<path d="M3200 360 l0 -140 70 0 c63 0 70 2 70 20 0 17 -7 20 -50 20 l-50 0 0
120 c0 113 -1 120 -20 120 -19 0 -20 -7 -20 -140z"/>
<path d="M3370 491 c0 -6 5 -13 12 -17 7 -4 8 -3 4 4 -4 7 -2 12 3 12 6 0 11
-7 11 -15 0 -9 9 -15 21 -15 15 0 19 4 15 16 -3 9 -6 19 -6 22 0 4 -5 0 -10
-8 -6 -10 -10 -11 -10 -2 0 6 -9 12 -20 12 -11 0 -20 -4 -20 -9z"/>
<path d="M3290 172 c-36 -12 -39 -45 -5 -74 31 -27 32 -40 3 -36 -31 4 -34
-20 -4 -28 51 -12 76 45 36 81 -24 22 -26 37 -4 33 10 -2 19 2 21 8 4 13 -25
23 -47 16z"/>
<path d="M506 138 c17 -89 20 -102 30 -105 6 -2 18 13 26 34 l15 38 16 -37 c9
-21 20 -38 25 -38 8 0 32 94 32 127 0 29 -29 12 -33 -19 l-3 -33 -13 33 c-7
17 -19 32 -26 32 -7 0 -16 -15 -21 -32 l-8 -33 -3 33 c-3 23 -9 32 -23 32 -17
0 -19 -5 -14 -32z"/>
<path d="M766 148 c-32 -46 -6 -118 42 -118 43 0 68 72 42 121 -15 27 -64 25
-84 -3z m59 -19 c9 -28 -2 -69 -19 -69 -18 0 -27 36 -16 66 12 29 26 31 35 3z"/>
<path d="M976 133 c-10 -63 -7 -105 7 -101 6 3 14 18 17 34 l6 29 11 -32 c15
-41 21 -41 36 0 l11 32 6 -29 c3 -16 11 -31 18 -34 9 -3 12 15 12 67 0 63 -2
71 -19 71 -13 0 -21 -9 -26 -30 -10 -43 -22 -45 -35 -5 -15 46 -36 45 -44 -2z"/>
<path d="M1212 103 l3 -68 38 0 c39 0 53 18 17 23 -26 4 -26 32 0 32 11 0 20
7 20 15 0 8 -9 15 -20 15 -11 0 -20 5 -20 10 0 6 9 10 20 10 11 0 20 7 20 15
0 11 -11 15 -40 15 l-41 0 3 -67z"/>
<path d="M1407 151 c-5 -20 1 -112 8 -119 10 -11 25 12 25 40 l0 31 23 -34
c12 -19 27 -34 32 -34 6 0 11 30 13 68 2 55 0 67 -13 67 -10 0 -15 -10 -15
-32 l-1 -33 -27 33 c-31 37 -38 39 -45 13z"/>
<path d="M1775 161 c-3 -6 -5 -22 -4 -38 0 -15 -2 -37 -6 -49 -10 -31 15 -46
64 -38 47 7 48 10 22 43 -14 19 -16 29 -8 42 16 26 1 49 -32 49 -16 0 -32 -4
-36 -9z m40 -91 c3 -5 1 -10 -4 -10 -6 0 -11 5 -11 10 0 6 2 10 4 10 3 0 8 -4
11 -10z"/>
<path d="M2112 103 c2 -53 6 -68 18 -68 12 0 16 15 18 68 3 62 1 67 -18 67
-19 0 -21 -5 -18 -67z"/>
<path d="M2260 100 c0 -56 3 -70 15 -70 11 0 15 11 15 37 l0 38 25 -38 c14
-20 30 -37 35 -37 6 0 10 32 10 70 0 54 -3 70 -14 70 -9 0 -16 -12 -18 -32
l-3 -33 -20 33 c-32 53 -45 42 -45 -38z"/>
<path d="M2480 100 c0 -56 3 -70 15 -70 9 0 15 9 15 24 0 15 7 26 20 29 11 3
20 10 20 16 0 6 -9 11 -20 11 -11 0 -20 7 -20 15 0 8 9 15 20 15 11 0 20 7 20
15 0 10 -11 15 -35 15 l-35 0 0 -70z"/>
<path d="M2663 105 c-12 -36 -17 -67 -12 -71 13 -7 29 4 29 22 0 21 28 17 40
-6 6 -11 17 -20 25 -20 19 0 19 -5 -5 74 -28 89 -48 89 -77 1z m47 6 c0 -6 -4
-13 -10 -16 -5 -3 -10 1 -10 9 0 9 5 16 10 16 6 0 10 -4 10 -9z"/>
<path d="M2862 103 c3 -74 25 -100 30 -36 l3 38 24 -38 c13 -21 29 -36 35 -34
6 2 12 32 14 70 2 55 0 67 -13 67 -15 0 -19 -10 -16 -42 3 -27 -12 -21 -31 12
-9 17 -24 30 -33 30 -13 0 -15 -11 -13 -67z"/>
<path d="M3070 160 c0 -6 7 -13 15 -16 11 -5 15 -21 15 -60 0 -41 4 -54 15
-54 11 0 15 13 15 54 0 45 3 54 20 59 39 10 20 27 -30 27 -28 0 -50 -5 -50
-10z"/>
</g>
</svg>
